<!-- icon666.com - MILLIONS OF FREE VECTOR ICONS --><svg viewBox="0 0 128 128" xmlns="http://www.w3.org/2000/svg"><g id="Expand"><path d="m5.53 34.21a5.53 5.53 0 0 0 -5.53 5.52v67.78a5.53 5.53 0 0 0 5.53 5.49h117a5.52 5.52 0 0 0 5.52-5.52v-67.75a5.52 5.52 0 0 0 -5.52-5.52zm117 4h.16l-58.69 42.01-58.64-42h117.12zm-74.53 35.46-43.84 33.39c-.06 0-.1.1-.16.15v-65zm3.4 2.44 11.46 8.2a2 2 0 0 0 1.16.37 2 2 0 0 0 1.17-.37l11.45-8.2 43.19 32.89h-111.66zm72.6 31.1a1.14 1.14 0 0 0 -.16-.15l-43.84-33.39 44-31.5z"></path></g></svg>