<!-- icon666.com - MILLIONS OF FREE VECTOR ICONS --><svg version="1.1" id="Layer_1" xmlns="http://www.w3.org/2000/svg" xmlns:xlink="http://www.w3.org/1999/xlink" x="0px" y="0px" viewBox="0 0 512 512" style="enable-background:new 0 0 512 512;" xml:space="preserve"><g><g><path d="M256,131c-35.841,0-65,29.159-65,65s29.159,65,65,65s65-29.159,65-65S291.841,131,256,131z M256,231 c-19.299,0-35-15.701-35-35s15.701-35,35-35s35,15.701,35,35S275.299,231,256,231z"></path></g></g><g><g><path d="M256,0C147.925,0,60,87.925,60,196c0,34.594,9.14,68.605,26.43,98.356c4.032,6.936,8.538,13.694,13.395,20.09L247.485,512 h17.031l147.658-197.555c4.858-6.395,9.364-13.154,13.395-20.09C442.86,264.605,452,230.594,452,196C452,87.925,364.075,0,256,0z M399.632,279.281c-3.424,5.891-7.253,11.632-11.382,17.064L256,473.283L123.822,296.441l-0.072-0.096 c-4.129-5.431-7.958-11.172-11.382-17.064C97.734,254.103,90,225.305,90,196c0-91.533,74.468-166,166-166s166,74.467,166,166 C422,225.305,414.266,254.103,399.632,279.281z"></path></g></g></svg>