<svg class="w-6 h-6 lg:w-8 lg:h-8" width="24" height="24" viewBox="0 0 24 24" fill="none" xmlns="http://www.w3.org/2000/svg"><path fill-rule="evenodd" clip-rule="evenodd" d="M2.08409 3.27354C2.44051 3.4768 3.01519 3.69146 3.8065 3.88408C5.38808 4.26907 7.63907 4.51994 10.2158 4.51994C12.5798 4.51994 15.3476 3.99007 17.6436 3.15278C17.0821 2.90896 16.5081 2.70329 15.8648 2.53427C14.5072 2.17755 12.7974 1.97349 10.2158 1.97349C7.64273 1.97349 5.39403 2.23963 3.81417 2.63929C3.01827 2.84063 2.44068 3.06394 2.08409 3.27354ZM19.9462 2.11275C18.7993 1.49993 17.6972 0.9835 16.3055 0.617821C14.7524 0.209745 12.8818 0 10.2158 0C7.5412 0 5.14359 0.274982 3.38902 0.718836C2.51891 0.938949 1.7578 1.21262 1.19181 1.54585C0.909495 1.71207 0.633069 1.91768 0.417233 2.17725C0.19753 2.44147 2.49814e-05 2.81415 2.37674e-09 3.27849C-2.50867e-05 3.74424 0.198585 4.11736 0.420858 4.38149C0.63848 4.64009 0.916627 4.84291 1.19932 5.0057C1.76607 5.33205 2.52755 5.59678 3.3966 5.80832C5.14949 6.23501 7.54488 6.49343 10.2158 6.49343C13.5407 6.49343 17.5647 5.54346 20.3472 4.1069C21.2445 3.64359 22.0508 3.11047 22.6697 2.5106C23.2797 1.91931 23.7852 1.18673 23.9178 0.318066L22.0958 0.000239097C22.0574 0.25153 21.8824 0.609721 21.4296 1.04863C21.0625 1.40445 20.5622 1.76449 19.9462 2.11275ZM23.2626 4.55404C23.7957 5.34124 24.1743 6.53206 23.9178 8.21204C23.7852 9.08071 23.2797 9.81329 22.6697 10.4046C22.0508 11.0044 21.2445 11.5376 20.3472 12.0009C17.5647 13.4374 13.5407 14.3874 10.2158 14.3874C7.54488 14.3874 5.14949 14.129 3.3966 13.7023C2.52755 13.4908 1.76607 13.226 1.19932 12.8997C0.916627 12.7369 0.63848 12.5341 0.420858 12.2755C0.198585 12.0113 -2.50867e-05 11.6382 2.37674e-09 11.1725C2.49814e-05 10.7081 0.19753 10.3354 0.417233 10.0712C0.633069 9.81165 0.909495 9.60605 1.19181 9.43983C1.7578 9.10659 2.51891 8.83293 3.38902 8.61281C5.14359 8.16896 7.5412 7.89398 10.2158 7.89398C12.8818 7.89398 14.7524 8.10372 16.3055 8.5118C17.6972 8.87748 18.7993 9.39391 19.9462 10.0067C20.5622 9.65847 21.0625 9.29842 21.4296 8.94261C21.8824 8.5037 22.0574 8.14551 22.0958 7.89422C22.2766 6.70945 21.9993 6.0541 21.7671 5.71132C21.6424 5.52717 21.5113 5.40514 21.418 5.33249C21.3715 5.29635 21.3357 5.27343 21.3169 5.26212C21.3076 5.25651 21.3027 5.25392 21.3031 5.25412L21.3078 5.25655L21.3134 5.25932L21.3171 5.26109L21.3191 5.26206L21.3202 5.26258C21.3207 5.26284 21.3213 5.2631 21.6949 4.36079C22.0685 3.45847 22.0691 3.45874 22.0697 3.45902L22.0709 3.45958L22.0734 3.46079L22.0789 3.46347L22.092 3.46994C22.1016 3.47475 22.1129 3.48057 22.1258 3.48744C22.1516 3.50116 22.1839 3.51915 22.2215 3.54176C22.2966 3.5869 22.3941 3.65102 22.5048 3.73723C22.7258 3.90928 23.0046 4.17319 23.2626 4.55404ZM17.6436 11.0468C17.0821 10.8029 16.5081 10.5973 15.8648 10.4283C14.5072 10.0715 12.7974 9.86747 10.2158 9.86747C7.64273 9.86747 5.39403 10.1336 3.81417 10.5333C3.01827 10.7346 2.44068 10.9579 2.08409 11.1675C2.44051 11.3708 3.01519 11.5854 3.8065 11.7781C5.38808 12.1631 7.63907 12.4139 10.2158 12.4139C12.5798 12.4139 15.3476 11.884 17.6436 11.0468ZM23.2626 12.448C23.7957 13.2352 24.1743 14.426 23.9178 16.106C23.7852 16.9747 23.2797 17.7073 22.6697 18.2986C22.0508 18.8984 21.2445 19.4315 20.3472 19.8949C17.5647 21.3314 13.5407 22.2814 10.2158 22.2814C7.54488 22.2814 5.14949 22.023 3.3966 21.5963C2.52755 21.3847 1.76607 21.12 1.19932 20.7937C0.916627 20.6309 0.63848 20.428 0.420858 20.1694C0.198585 19.9053 -2.50867e-05 19.5322 2.37674e-09 19.0664C2.49814e-05 18.6021 0.19753 18.2294 0.417233 17.9652C0.633069 17.7056 0.909495 17.5 1.19181 17.3338C1.7578 17.0006 2.51891 16.7269 3.38902 16.5068C5.14359 16.0629 7.5412 15.788 10.2158 15.788C12.8818 15.788 14.7524 15.9977 16.3055 16.4058C17.6972 16.7715 18.7993 17.2879 19.9462 17.9007C20.5622 17.5524 21.0625 17.1924 21.4296 16.8366C21.8824 16.3977 22.0574 16.0395 22.0958 15.7882C22.2766 14.6034 21.9993 13.9481 21.7671 13.6053C21.6424 13.4211 21.5113 13.2991 21.418 13.2265C21.3715 13.1903 21.3357 13.1674 21.3169 13.1561C21.3076 13.1505 21.3027 13.1479 21.3031 13.1481L21.3078 13.1505L21.3134 13.1533L21.3171 13.1551L21.3191 13.156L21.3202 13.1566C21.3207 13.1568 21.3213 13.1571 21.6949 12.2548C22.0685 11.3524 22.0691 11.3527 22.0697 11.353L22.0709 11.3536L22.0734 11.3548L22.0789 11.3575L22.092 11.3639C22.1016 11.3687 22.1129 11.3745 22.1258 11.3814C22.1516 11.3951 22.1839 11.4131 22.2215 11.4357C22.2966 11.4809 22.3941 11.545 22.5048 11.6312C22.7258 11.8033 23.0046 12.0672 23.2626 12.448ZM17.6436 18.9407C17.0821 18.6969 16.5081 18.4913 15.8648 18.3222C14.5072 17.9655 12.7974 17.7615 10.2158 17.7615C7.64273 17.7615 5.39403 18.0276 3.81417 18.4272C3.01827 18.6286 2.44068 18.8519 2.08409 19.0615C2.44051 19.2648 3.01519 19.4794 3.8065 19.672C5.38808 20.057 7.63907 20.3079 10.2158 20.3079C12.5798 20.3079 15.3476 19.778 17.6436 18.9407ZM23.2626 20.342C23.7957 21.1292 24.1743 22.32 23.9178 24L22.0958 23.6822C22.2766 22.4974 21.9993 21.8421 21.7671 21.4993C21.6424 21.3151 21.5113 21.1931 21.418 21.1204C21.3715 21.0843 21.3357 21.0614 21.3169 21.0501C21.3076 21.0445 21.3027 21.0419 21.3031 21.0421L21.3078 21.0445L21.3134 21.0473L21.3171 21.049L21.3191 21.05L21.3202 21.0505C21.3207 21.0508 21.3213 21.0511 21.6949 20.1487C22.0685 19.2464 22.0691 19.2467 22.0697 19.247L22.0734 19.2487L22.0789 19.2514L22.092 19.2579C22.1016 19.2627 22.1129 19.2685 22.1258 19.2754C22.1516 19.2891 22.1839 19.3071 22.2215 19.3297C22.2966 19.3749 22.3941 19.439 22.5048 19.5252C22.7258 19.6972 23.0046 19.9611 23.2626 20.342Z" fill="currentColor"></path></svg>