<?xml version="1.0" encoding="utf-8"?>
<!-- Generator: Adobe Illustrator 28.2.0, SVG Export Plug-In . SVG Version: 6.00 Build 0)  -->
<svg version="1.1" id="Слой_1" xmlns="http://www.w3.org/2000/svg" xmlns:xlink="http://www.w3.org/1999/xlink" x="0px" y="0px"
	 viewBox="0 0 510.8 400.8" style="enable-background:new 0 0 510.8 400.8;" xml:space="preserve">
<style type="text/css">
	.st0{fill-rule:evenodd;clip-rule:evenodd;fill:#2F2C38;}
	.st1{fill-rule:evenodd;clip-rule:evenodd;fill:#44424E;}
	.st2{fill-rule:evenodd;clip-rule:evenodd;fill:#B6483E;}
	.st3{fill-rule:evenodd;clip-rule:evenodd;fill:#FFFFFF;}
	.st4{fill-rule:evenodd;clip-rule:evenodd;fill:#C5C5C4;}
	.st5{fill-rule:evenodd;clip-rule:evenodd;fill:#6F6F6E;}
	.st6{fill-rule:evenodd;clip-rule:evenodd;fill:#727FA5;}
	.st7{fill-rule:evenodd;clip-rule:evenodd;fill:#5C6380;}
	.st8{fill-rule:evenodd;clip-rule:evenodd;fill:#97A1BD;}
	.st9{fill-rule:evenodd;clip-rule:evenodd;fill:#D8D8D8;}
	.st10{fill-rule:evenodd;clip-rule:evenodd;fill:#686771;}
	.st11{fill-rule:evenodd;clip-rule:evenodd;fill:#E6B575;}
	.st12{fill:#FFFFFF;}
	.st13{font-family:'ArialMT';}
	.st14{font-size:50.6644px;}
	.st15{font-size:37.7683px;}
</style>
<g>
	<g>
		<polygon class="st0" points="127.5,97.2 378.4,97.2 378.4,295.8 253,381 127.5,295.8 127.5,295.8 		"/>
		<path class="st1" d="M358.4,179.4c0-0.8,0.7-1.5,1.5-1.5c0.8,0,1.5,0.7,1.5,1.5v109.2c0,0.5-0.3,1-0.8,1.3l-106.7,72.5
			c-0.5,0.3-1.2,0.3-1.7,0l-106.8-72.5c-0.4-0.3-0.6-0.7-0.6-1.2V179.4c0-0.8,0.7-1.5,1.5-1.5c0.8,0,1.5,0.6,1.5,1.5v108.4
			L253,359.4l105.4-71.6L358.4,179.4L358.4,179.4z"/>
	</g>
	<polygon class="st2" points="161.9,136.1 344.1,136.1 344.1,280.3 253,342.1 161.9,280.3 161.9,280.3 	"/>
	<g>
		<g>
			<path class="st0" d="M327.5,238.6h-5.7v37h5.2c2.8,0,5.2-2.3,5.2-5.2v-27.2C332.2,240.7,330.1,238.6,327.5,238.6z"/>
			<rect x="315.1" y="197" class="st0" width="7" height="104.6"/>
			<path class="st0" d="M322.5,221.6h-7.8c-0.7,0-1.3,0.6-1.3,1.3V263c0,0.7,0.6,1.3,1.3,1.3h7.8c0.7,0,1.3-0.6,1.3-1.3v-40.1
				C323.8,222.2,323.2,221.6,322.5,221.6z"/>
			<path class="st0" d="M323.3,194H314c-1.4,0-2.5,1.1-2.5,2.5l0,0c0,1.4,1.1,2.5,2.5,2.5h9.3c1.4,0,2.5-1.1,2.5-2.5l0,0
				C325.8,195.1,324.7,194,323.3,194z"/>
			<path class="st0" d="M321.4,292.1h-6.2c-1,0-1.8,0.8-1.8,1.8v9.8h10.5v-9.2C323.9,293.3,322.8,292.1,321.4,292.1z"/>
			<g>
				<path class="st0" d="M289.8,254.5h26.7v3.2c0,0.8-0.7,1.5-1.5,1.5h-27.6v-2.3C287.5,255.5,288.5,254.5,289.8,254.5z"/>
				<path class="st0" d="M316.5,255.1v-9c0-3.4,0.1-2.6-2.3-0.2l-9.4,9.4L316.5,255.1z"/>
			</g>
			<path class="st0" d="M329.4,246.5c0.6,0,1.1-0.5,1.1-1.1c0-0.6-0.5-1.1-1.1-1.1c-0.6,0-1.1,0.5-1.1,1.1
				C328.3,246,328.8,246.5,329.4,246.5z"/>
			<path class="st0" d="M329.4,252.2c0.6,0,1.1-0.5,1.1-1.1s-0.5-1.1-1.1-1.1c-0.6,0-1.1,0.5-1.1,1.1
				C328.3,251.7,328.8,252.2,329.4,252.2z"/>
			<path class="st0" d="M329.4,257.8c0.6,0,1.1-0.5,1.1-1.1c0-0.6-0.5-1.1-1.1-1.1c-0.6,0-1.1,0.5-1.1,1.1
				C328.3,257.3,328.8,257.8,329.4,257.8z"/>
			<path class="st0" d="M328.4,265.7c1.2,0,2.2-1,2.2-2.2c0-1.2-1-2.2-2.2-2.2c-1.2,0-2.2,1-2.2,2.2
				C326.2,264.7,327.1,265.7,328.4,265.7z"/>
			<path class="st0" d="M321.2,224.5h-5.1c-0.5,0-0.9,0.4-0.9,0.9v6c0,0.5,0.4,0.9,0.9,0.9h5.1c0.5,0,0.9-0.4,0.9-0.9v-6
				C322.1,224.9,321.7,224.5,321.2,224.5z"/>
		</g>
		<g>
			<path class="st0" d="M178.5,241.3h5.7v37H179c-2.8,0-5.2-2.3-5.2-5.2V246C173.8,243.4,175.9,241.3,178.5,241.3z"/>
			<rect x="183.8" y="199.7" class="st0" width="7" height="104.6"/>
			<path class="st0" d="M183.4,224.3h7.8c0.7,0,1.3,0.6,1.3,1.3v40.1c0,0.7-0.6,1.3-1.3,1.3h-7.8c-0.7,0-1.3-0.6-1.3-1.3v-40.1
				C182.1,224.9,182.7,224.3,183.4,224.3z"/>
			<path class="st0" d="M182.6,196.7h9.3c1.4,0,2.5,1.1,2.5,2.5l0,0c0,1.4-1.1,2.5-2.5,2.5h-9.3c-1.4,0-2.5-1.1-2.5-2.5l0,0
				C180.1,197.8,181.3,196.7,182.6,196.7z"/>
			<path class="st0" d="M184.5,294.8h6.2c1,0,1.8,0.8,1.8,1.8v9.8H182v-9.2C182,295.9,183.2,294.8,184.5,294.8z"/>
			<g>
				<path class="st0" d="M216.2,257.1h-26.7v3.2c0,0.8,0.7,1.5,1.5,1.5h27.6v-2.3C218.5,258.2,217.4,257.1,216.2,257.1z"/>
				<path class="st0" d="M189.5,257.7v-9c0-3.4-0.1-2.6,2.3-0.2l9.4,9.4L189.5,257.7z"/>
			</g>
			<path class="st0" d="M176.5,249.2c0.6,0,1.1-0.5,1.1-1.1s-0.5-1.1-1.1-1.1c-0.6,0-1.1,0.5-1.1,1.1
				C175.4,248.7,175.9,249.2,176.5,249.2z"/>
			<path class="st0" d="M176.5,254.9c0.6,0,1.1-0.5,1.1-1.1c0-0.6-0.5-1.1-1.1-1.1c-0.6,0-1.1,0.5-1.1,1.1
				C175.4,254.4,175.9,254.9,176.5,254.9z"/>
			<path class="st0" d="M176.5,260.5c0.6,0,1.1-0.5,1.1-1.1c0-0.6-0.5-1.1-1.1-1.1c-0.6,0-1.1,0.5-1.1,1.1
				C175.4,260,175.9,260.5,176.5,260.5z"/>
			<path class="st0" d="M177.6,268.4c1.2,0,2.2-1,2.2-2.2c0-1.2-1-2.2-2.2-2.2c-1.2,0-2.2,1-2.2,2.2S176.4,268.4,177.6,268.4z"/>
			<path class="st0" d="M184.8,227.2h5.1c0.5,0,0.9,0.4,0.9,0.9v6c0,0.5-0.4,0.9-0.9,0.9h-5.1c-0.5,0-0.9-0.4-0.9-0.9v-6
				C183.8,227.6,184.3,227.2,184.8,227.2z"/>
		</g>
	</g>
</g>
<g>
	<g>
		<path class="st0" d="M307.7,83.3c-11,0-19.9,11.8-19.9,26.4c0,14.6,8.9,26.4,19.9,26.4h13.4c-14.8-7.3-16.6-15.9-16.6-26.4
			c0-7,0-15.5,16.6-26.4H307.7z"/>
		<path class="st0" d="M321.2,83.3c-12.2,0-22.1,11.8-22.1,26.4c0,14.6,9.9,26.4,22.1,26.4c12.2,0,22.1-11.8,22.1-26.4
			C343.2,95.1,333.4,83.3,321.2,83.3z"/>
	</g>
	<path class="st0" d="M112,83.3c-11,0-19.9,11.8-19.9,26.4c0,14.6,8.9,26.4,19.9,26.4h13.4c-14.8-7.3-16.6-15.9-16.6-26.4
		c0-7,0-15.5,16.6-26.4H112z"/>
	<path class="st0" d="M125.4,83.3c-12.2,0-22.1,11.8-22.1,26.4c0,14.6,9.9,26.4,22.1,26.4c12.2,0,22.1-11.8,22.1-26.4
		C147.5,95.1,137.6,83.3,125.4,83.3z"/>
	<path class="st0" d="M188.9,83.3c-11,0-19.9,11.8-19.9,26.4c0,14.6,8.9,26.4,19.9,26.4h13.4c-14.8-7.3-16.6-15.9-16.6-26.4
		c0-7,0-15.5,16.6-26.4H188.9z"/>
	<path class="st0" d="M368.3,83.3c-11,0-19.9,11.8-19.9,26.4c0,14.6,8.9,26.4,19.9,26.4h13.4c-14.8-7.3-16.6-15.9-16.6-26.4
		c0-7,0-15.5,16.6-26.4H368.3z"/>
	<path class="st0" d="M202.3,83.3c-12.2,0-22.1,11.8-22.1,26.4c0,14.6,9.9,26.4,22.1,26.4c12.2,0,22.1-11.8,22.1-26.4
		C224.4,95.1,214.5,83.3,202.3,83.3z"/>
	<g>
		<path class="st3" d="M202.3,89.9c-8.6,0-15.6,8.9-15.6,19.8c0,10.9,7,19.8,15.6,19.8c8.6,0,15.6-8.9,15.6-19.8
			C217.9,98.7,210.9,89.9,202.3,89.9z"/>
		<g>
			<path class="st3" d="M202.3,91.7c-7.8,0-14.2,8-14.2,17.9c0,9.9,6.3,17.9,14.2,17.9c7.8,0,14.2-8,14.2-17.9
				C216.5,99.8,210.1,91.7,202.3,91.7z"/>
			<g>
				<path class="st4" d="M188.4,112.9c0.1,0.4,0.1,0.9,0.2,1.3l27.7-7.4c-0.1-0.4-0.1-0.9-0.2-1.3L188.4,112.9z"/>
				<path class="st4" d="M188.2,109.2c0,0.2,0,0.3,0,0.5c0,0.3,0,0.5,0,0.8h28.3c0-0.3,0-0.5,0-0.8c0-0.2,0-0.3,0-0.5L188.2,109.2z"
					/>
				<path class="st4" d="M188.6,105.5c-0.1,0.4-0.1,0.9-0.2,1.3l27.7,7.4c0.1-0.4,0.2-0.8,0.2-1.3L188.6,105.5z"/>
				<path class="st4" d="M202.3,91.7c-0.2,0-0.4,0-0.6,0v35.9c0.2,0,0.4,0,0.6,0c0.2,0,0.5,0,0.7,0V91.8
					C202.8,91.7,202.6,91.7,202.3,91.7z"/>
				<path class="st4" d="M197.3,126.5c0.4,0.2,0.8,0.4,1.2,0.5l9.1-33.9c-0.4-0.2-0.8-0.4-1.2-0.5L197.3,126.5z"/>
				<path class="st4" d="M193.6,123.8c0.3,0.3,0.6,0.6,1,0.9l16.7-28.9c-0.3-0.3-0.6-0.6-1-0.9L193.6,123.8z"/>
				<path class="st4" d="M191,120.4c0.2,0.4,0.5,0.8,0.7,1.1l22.2-22.2c-0.2-0.4-0.5-0.8-0.7-1.1L191,120.4z"/>
				<path class="st4" d="M189.3,116.7c0.1,0.4,0.3,0.8,0.5,1.2l25.7-14.8c-0.1-0.4-0.3-0.8-0.4-1.2L189.3,116.7z"/>
				<path class="st4" d="M189.6,101.7c-0.2,0.4-0.3,0.8-0.4,1.2l25.7,14.8c0.2-0.4,0.3-0.8,0.4-1.2L189.6,101.7z"/>
				<path class="st4" d="M191.5,98.1c-0.2,0.4-0.5,0.7-0.7,1.1l22.2,22.2c0.2-0.4,0.5-0.7,0.7-1.1L191.5,98.1z"/>
				<path class="st4" d="M194.4,94.8c-0.3,0.3-0.7,0.6-1,0.9l16.7,28.9c0.3-0.3,0.7-0.6,1-0.9L194.4,94.8z"/>
				<path class="st4" d="M198.4,92.4c-0.4,0.1-0.8,0.3-1.2,0.5l9.1,34c0.4-0.2,0.8-0.3,1.2-0.5L198.4,92.4z"/>
			</g>
			<path class="st4" d="M202.3,101.8c-3.4,0-6.2,3.5-6.2,7.8c0,4.3,2.8,7.8,6.2,7.8c3.4,0,6.2-3.5,6.2-7.8
				C208.5,105.3,205.7,101.8,202.3,101.8z"/>
			<path class="st5" d="M202.3,104.2c-2.4,0-4.4,2.5-4.4,5.5s2,5.5,4.4,5.5c2.4,0,4.3-2.5,4.3-5.5
				C206.7,106.6,204.7,104.2,202.3,104.2z"/>
		</g>
	</g>
	<path class="st0" d="M381.7,83.3c-12.2,0-22.1,11.8-22.1,26.4c0,14.6,9.9,26.4,22.1,26.4s22.1-11.8,22.1-26.4
		C403.8,95.1,393.9,83.3,381.7,83.3z"/>
	<g>
		<path class="st3" d="M382.1,90.1c-8.6,0-15.6,8.9-15.6,19.8s7,19.8,15.6,19.8s15.6-8.9,15.6-19.8S390.7,90.1,382.1,90.1z"/>
		<g>
			<path class="st3" d="M382.1,91.9c-7.8,0-14.2,8-14.2,17.9c0,9.9,6.3,17.9,14.2,17.9c7.8,0,14.2-8,14.2-17.9
				C396.2,100,389.9,91.9,382.1,91.9z"/>
			<g>
				<path class="st4" d="M368.2,113.1c0.1,0.4,0.1,0.9,0.2,1.3l27.7-7.4c-0.1-0.4-0.1-0.9-0.2-1.3L368.2,113.1z"/>
				<path class="st4" d="M367.9,109.4c0,0.2,0,0.3,0,0.5c0,0.3,0,0.5,0,0.8h28.3c0-0.3,0-0.5,0-0.8c0-0.2,0-0.3,0-0.5H367.9z"/>
				<path class="st4" d="M368.3,105.7c-0.1,0.4-0.1,0.9-0.2,1.3l27.7,7.4c0.1-0.4,0.2-0.9,0.2-1.3L368.3,105.7z"/>
				<path class="st4" d="M382.1,91.9c-0.2,0-0.4,0-0.6,0v35.9c0.2,0,0.4,0,0.6,0c0.2,0,0.5,0,0.7,0V92
					C382.6,92,382.3,91.9,382.1,91.9z"/>
				<path class="st4" d="M377,126.7c0.4,0.2,0.8,0.4,1.2,0.5l9.1-33.9c-0.4-0.2-0.8-0.4-1.2-0.5L377,126.7z"/>
				<path class="st4" d="M373.4,124c0.3,0.3,0.6,0.6,1,0.9L391,96c-0.3-0.3-0.6-0.6-1-0.9L373.4,124z"/>
				<path class="st4" d="M370.7,120.6c0.2,0.4,0.5,0.8,0.7,1.1l22.2-22.2c-0.2-0.4-0.5-0.8-0.7-1.1L370.7,120.6z"/>
				<path class="st4" d="M369,116.9c0.1,0.4,0.3,0.8,0.5,1.2l25.7-14.8c-0.1-0.4-0.3-0.8-0.4-1.2L369,116.9z"/>
				<path class="st4" d="M369.4,101.9c-0.2,0.4-0.3,0.8-0.4,1.2l25.7,14.8c0.2-0.4,0.3-0.8,0.4-1.2L369.4,101.9z"/>
				<path class="st4" d="M371.3,98.3c-0.2,0.4-0.5,0.7-0.7,1.1l22.2,22.2c0.2-0.4,0.5-0.7,0.7-1.1L371.3,98.3z"/>
				<path class="st4" d="M374.2,95c-0.3,0.3-0.7,0.6-1,0.9l16.7,28.9c0.3-0.3,0.7-0.6,1-0.9L374.2,95z"/>
				<path class="st4" d="M378.2,92.6c-0.4,0.1-0.8,0.3-1.2,0.5l9.1,34c0.4-0.2,0.8-0.3,1.2-0.5L378.2,92.6z"/>
			</g>
			<path class="st4" d="M382.1,102.1c-3.4,0-6.2,3.5-6.2,7.8c0,4.3,2.8,7.8,6.2,7.8c3.4,0,6.2-3.5,6.2-7.8
				C388.3,105.6,385.5,102.1,382.1,102.1z"/>
			<path class="st5" d="M382.1,104.4c-2.4,0-4.4,2.5-4.4,5.5s1.9,5.5,4.4,5.5c2.4,0,4.4-2.5,4.4-5.5
				C386.4,106.8,384.5,104.4,382.1,104.4z"/>
		</g>
	</g>
	<path class="st6" d="M160.6,51.3c23.1-15.9,36-24.7,43.2-29.6c10.9-7.5,19.1-6.2,31.7-6.2h90.3l56.4,36c35.4,0,31.9,40,27.5,62.9
		h-6.2c0.2-1.5,0.4-3.1,0.4-4.7c0-14.6-9.9-26.4-22.1-26.4c-12.2,0-22.1,11.8-22.1,26.4c0,1.6,0.1,3.2,0.4,4.7H224.4
		c3.8-25.1-11.7-35.3-25.8-33.2c-12.4,1.8-20.8,15.1-20.8,28.5c0,8.1,0.1,3.2,0.4,4.7h-5.6l-1,2.2c-0.5,1-0.9,2-2.1,2.1l-12.9,0.4
		c-1.3,0-3-3.6-3.7-4.7H97.5c-0.8,1-2.8,4.3-3.9,4.3h-8.2c-1.1,0-2.1-0.9-2.1-2.1v-2.2v-2.2V74.5c0,0,1.4-8.8,13.8-12.6
		C109.5,58.1,160.6,51.3,160.6,51.3z"/>
	<path class="st7" d="M160.6,51.3c23.1-15.9,36-24.7,43.2-29.6c10.9-7.5,19.1-6.2,31.7-6.2h92.1c10.1,0,13.1,1.8,21.6,8
		c12,8.8,25.5,22.4,33.1,28h13.7c29.9,0,25.7,62.9,25.7,62.9h-18.1c0.2-1.5,0.4-3.1,0.4-4.7c0-14.6-9.9-26.4-22.1-26.4
		c-12.2,0-22.1,11.8-22.1,26.4c0,1.6,0.1,3.2,0.4,4.7H224.3c-0.6-0.4-0.5,0.4-0.5-0.6c0-0.7,0-1.9,0-4.1c0-18.2-12.4-26.3-23.3-25.7
		c-11,0.7-20.4,10.4-20.4,25.7c0,8.1,0.1,3.2,0.4,4.7h-7.9c2.4-19.2,10.5-40.4,29.4-48.4c23.2-9.7,38.3-14.3,38.3-14.3h-82.8
		C159.5,51.4,160.6,51.3,160.6,51.3z"/>
	<path class="st8" d="M421.7,101.1c0.3,7.8-0.1,13.4-0.1,13.4h-18.1c0.2-1.5,0.4-3.1,0.4-4.7c0-14.6-9.9-26.4-22.1-26.4
		c-12.2,0-22.1,11.8-22.1,26.4c0,1.6,0.1,3.2,0.4,4.7H224.2c-0.4,0-0.4,0-0.4-0.4c0-0.6,0-1.8,0-4.4c0-18.2-12.4-26.3-23.3-25.7
		c-11,0.7-20.4,10.4-20.4,25.7c0,8.1,0.1,3.2,0.4,4.7h-7.9c0.9-6.9,2.5-14,5-20.7c15.1-25.8,45.6-18.9,53.9,5.9c0.3,1,4,0.9,7.2,1
		c27.8,0.8,113.2,0.8,113.2,0.8s6.6-26.9,29.9-25.6c23.3,1.3,27.4,17.8,28.2,23.1C410.8,104.2,416.4,102.3,421.7,101.1z"/>
	<path class="st8" d="M412.1,114.4h-8.6c0.2-1.5,0.4-3.1,0.4-4.7c0-14.6-9.9-26.4-22.1-26.4c-12.2,0-22.1,11.8-22.1,26.4
		c0,1.6,0.1,3.2,0.4,4.7h-8.6c-0.2-1.5-0.3-3.1-0.3-4.7c0-17.6,13.7-31.9,30.7-31.9s30.7,14.3,30.7,31.9
		C412.4,111.3,412.3,112.9,412.1,114.4z"/>
	<path class="st0" d="M166.1,51.6c71.6,0,74.2,0,74.2,0c12-19.8,30.6-32.9,30.5-32.9c-8.7,0-33.4,0-50.8,0c-7.9,0-13.7,4.6-20.3,9.1
		C187.9,36,177.9,43.4,166.1,51.6z"/>
	<path class="st0" d="M246.6,52.1c2.7-5.7,24.1-29.6,31.8-32c6.4-2,24.3-1,24.3-1l-0.2,33L246.6,52.1L246.6,52.1z"/>
	<path class="st0" d="M369.4,52.1c-2.7-5.7-24.6-29.6-32.5-32c-6.6-2-29.1-1-29.1-1l0.2,33L369.4,52.1L369.4,52.1z"/>
	<path class="st0" d="M99.6,72.1h50.2c2.3,0,5.1,2.1,4.2,4.2l-3.3,7.6c-0.9,2.1-1.9,4.2-4.2,4.2h-44.2c-2.3,0-3.4-2-4.2-4.2
		l-2.7-7.6C94.6,74.1,97.3,72.1,99.6,72.1z"/>
	<path class="st0" d="M95.5,108.5h62.1c1.1,0,2.4-1,2-2l-1.6-3.6c-0.4-1-0.9-2-2-2H96.8c-1.1,0-1.6,1-2,2l-1.3,3.6
		C93.2,107.5,94.4,108.5,95.5,108.5z"/>
	<path class="st3" d="M83.3,88h7.9c2.3,0,5.3-1.9,4.5-3.8L93,77.4c-0.8-1.9-1.5-3.8-3.8-3.8h-5.7c-0.2,0.5-0.2,0.8-0.2,0.8
		S83.3,88,83.3,88z"/>
	<path class="st9" d="M158.4,88h11.5c6.6-0.2,10.4-6.7,12.1-11c1.4-3.7,0.8-3.6-3.1-3.5c-2,0-3.5,0.2-4.3,0.2h-12.2
		c-2.3,0-3.6,1.8-4.5,3.8l-3.3,6.8C153.6,86.2,156.1,88,158.4,88z"/>
	<path class="st3" d="M181.7,73.5c-0.6-0.1-1.5-0.1-2.8-0.1c-2,0-3.5,0.2-4.3,0.2h-12.2c-2.3,0-3.6,1.8-4.5,3.8l-3.2,6.6
		c0.8,0.7,2,1.2,3.2,1.2h11.5c6.6-0.2,10.4-6.7,12.1-11C181.6,74,181.7,73.7,181.7,73.5z"/>
	<path class="st0" d="M91.5,106.5l1.6-3.6c0.4-1-0.9-2-2-2h-3.9h-3.9v7.6h3.1h3.1C90.6,108.5,91.1,107.5,91.5,106.5z"/>
	<path class="st0" d="M160.2,102.9l1.3,3.6c0.4,1,0.9,2,2,2h5.5h1.1c2.3,0,1.9-1,2.8-6.3c0.3-1.6,0.2-1.3-1.4-1.3h-1.7h-7.6
		C161.1,100.9,159.8,101.8,160.2,102.9z"/>
	<g>
		<path class="st3" d="M100.9,75.3h47.8c0.5,0,0.9,0.4,0.9,0.9l0,0c0,0.5-0.4,0.9-0.9,0.9h-47.8c-0.5,0-0.9-0.4-0.9-0.9l0,0
			C100,75.7,100.4,75.3,100.9,75.3z"/>
		<path class="st3" d="M102.8,79.1h44.1c0.5,0,0.9,0.4,0.9,0.9l0,0c0,0.5-0.4,0.9-0.9,0.9h-44.1c-0.5,0-0.9-0.4-0.9-0.9l0,0
			C101.8,79.5,102.2,79.1,102.8,79.1z"/>
		<path class="st3" d="M104.6,83H145c0.5,0,0.9,0.4,0.9,0.9l0,0c0,0.5-0.4,0.9-0.9,0.9h-40.4c-0.5,0-0.9-0.4-0.9-0.9l0,0
			C103.7,83.4,104.1,83,104.6,83z"/>
	</g>
	<path class="st8" d="M88.7,66.5c-0.2-0.1-0.3-0.4-0.2-0.6c0.1-0.2,0.4-0.3,0.6-0.2c1.4,0.7,3.6,1.1,6.8,1.5
		c3.2,0.3,7.4,0.5,12.9,0.5l79.5,0c0.6,0,9.5,0.4,16.9-3.3c0.2-0.1,0.5,0,0.6,0.2c0.1,0.2,0,0.5-0.2,0.6c-7.5,3.8-16.7,3.4-17.3,3.4
		h-79.4c-5.5,0-9.7-0.1-12.9-0.5C92.5,67.7,90.2,67.2,88.7,66.5z"/>
	<path class="st0" d="M108.9,91.1h31.6c1,0,1.7,0.8,1.7,1.7v4.2c0,1-0.8,1.7-1.7,1.7h-31.6c-1,0-1.7-0.8-1.7-1.7v-4.2
		C107.1,91.9,107.9,91.1,108.9,91.1z"/>
	<path class="st1" d="M211.1,44c25.2,0,25.2-1.6,46.5-25.4c-7.8,0-30.6,0-37.6,0c-7.9,0-13.7,4.6-20.3,9.1
		c-8.1,5.6-15.4,10.8-22.9,16.2C184.5,44,186,44,211.1,44z"/>
	<path class="st1" d="M300,19c-5.3-0.2-16.7-0.4-21.6,1.1c-5.9,1.8-19.5,15.9-27,25.1c7.1,0,18,0,35.8,0C300.8,45.2,300,28.9,300,19
		z"/>
	<path class="st1" d="M313.8,18.9c0,15.3,0,15.3,0,15.3s-3.2,10.1,17.5,10.1c20.7,0,21.9,0,32.3,0c-2.9-3.4-6.5-7.4-10.2-11.1
		c-6.3-6.3-13-12-16.6-13.1c-1.3-0.4-3.1-0.7-5.3-0.8C326.2,18.8,318.9,18.8,313.8,18.9z"/>
	<path class="st8" d="M174,113.1c0,0.2-0.2,0.4-0.5,0.4c-0.2,0-0.4-0.2-0.4-0.5c0.6-6.7,3-18.7,9-29.1c4-7,9.6-13.3,17.3-17
		c19.2-9,40-15.1,40-15.2c0.2-0.1,0.5,0.1,0.5,0.3c0.1,0.2-0.1,0.5-0.3,0.5c-0.1,0-20.8,6.1-39.9,15.1c-7.6,3.6-13,9.8-16.9,16.6
		C177,94.6,174.6,106.4,174,113.1z"/>
	<path class="st8" d="M418,74.2c-2-7.2-5.1-13.7-9.7-17.9c-1.5,1.5-2.5,3.4-2.9,5.5c-0.1,0.6-0.2,1.2-0.2,1.9c0,3.9,2.1,7.3,5.3,9.2
		c1.6,0.9,3.4,1.5,5.4,1.5C416.6,74.4,417.3,74.3,418,74.2z"/>
	<path class="st9" d="M409.3,57.2c-0.6,0.7-1.4,1.6-1.5,1.9c-0.5,0.9-0.9,1.9-1.1,3c-0.1,0.5-0.1,1.1-0.1,1.7c0,3.3,1.8,6.4,4.6,8
		c1.4,0.8,3.1,1.3,4.7,1.3c0.1,0,1.1,0.1,1.8,0.1C415.8,66.9,413.1,61.2,409.3,57.2z"/>
	<path class="st9" d="M178.4,83.4c-3.3-2.1-5.5-5.6-5.5-9.7h-4.4c3,2.1,4.9,5.6,4.9,9.5c0,1.6-0.3,3-0.9,4.4
		C174.9,86.8,176.9,85.2,178.4,83.4z"/>
	<path class="st7" d="M270.8,38.9h-10.1c-1.9,0-3.2,1.8-4.2,3.8l-2.4,4.6c-1.2,2.2-1.4,3.2,1.4,3.2h9.5c3.3-0.1,4.3-0.9,6.4-3.7
		C274.9,42.1,276.1,38.9,270.8,38.9z"/>
	<path class="st7" d="M406.7,110.7h16.5c1,0,1.9,0.8,1.9,1.9v4.7c0,1-0.8,1.9-1.9,1.9h-16.5c-1,0-1.9-0.8-1.9-1.9v-4.7
		C404.8,111.5,405.6,110.7,406.7,110.7z"/>
	<path class="st8" d="M246.6,52.6c-0.2,0-0.4-0.2-0.4-0.4c0-0.2,0.2-0.4,0.4-0.4c1.4,0,6.5,6.3,6.5,6.3c0.1,0.1,0.1,0.2,0.1,0.3
		l0,56.1c0,0.2-0.2,0.4-0.4,0.4c-0.2,0-0.4-0.2-0.4-0.4v-56C251.7,57.6,247.6,52.6,246.6,52.6z"/>
	<path class="st8" d="M305,15.4c0-0.2,0.2-0.4,0.4-0.4s0.4,0.2,0.4,0.4v99c0,0.2-0.2,0.4-0.4,0.4c-0.2,0-0.4-0.2-0.4-0.4V15.4z"/>
	<path class="st8" d="M381.3,51.6c0-0.2,0.2-0.4,0.4-0.4c0.2,0,0.4,0.2,0.4,0.4c0,15.5-0.4,23.5-0.4,23.5c0,0.2-0.2,0.4-0.5,0.4l0,0
		c-1.2-0.1-2.4-0.1-3.6-0.1c-9,0.1-15.6,3.7-20.2,9.3c-4.6,5.7-7,13.6-7.8,22.3c-0.2,2.1-0.2,4.3-0.2,6.5c0,0.2-0.2,0.4-0.4,0.4
		c-0.2,0-0.4-0.2-0.4-0.4c0-2.2,0-4.4,0.2-6.5c0.7-8.9,3.3-16.9,8-22.8c4.7-5.9,11.5-9.6,20.8-9.7h0c1,0,2.1,0,3.2,0.1
		C381,72.7,381.3,65,381.3,51.6z"/>
	<path class="st7" d="M228.2,110.7h126.3c1,0,1.9,0.8,1.9,1.9v4.7c0,1-0.8,1.9-1.9,1.9H228.2c-1,0-1.9-0.8-1.9-1.9v-4.7
		C226.3,111.5,227.1,110.7,228.2,110.7z"/>
	<path class="st0" d="M288.8,62H301c0.6,0,1.1,0.5,1.1,1.1v2.7c0,0.6-0.5,1.1-1.1,1.1h-12.2c-0.6,0-1.1-0.5-1.1-1.1v-2.7
		C287.7,62.5,288.2,62,288.8,62z"/>
	<path class="st0" d="M361.3,62h12.2c0.6,0,1.1,0.5,1.1,1.1v2.7c0,0.6-0.5,1.1-1.1,1.1h-12.2c-0.6,0-1.1-0.5-1.1-1.1v-2.7
		C360.2,62.5,360.7,62,361.3,62z"/>
	<path class="st6" d="M244.4,58.7c-0.8,0-1.5,0-2.3-0.1c-5.9-0.2-9.6,0.6-15.1,1.1v0c4.7-2.5,10.1-3.1,15.1-3.3
		c30.1-1,102.2-1.5,132.2-1.7l0,2.4C343.3,57.4,276,57.8,244.4,58.7z"/>
	<path class="st8" d="M153.4,110.7H173c1,0,1.9,0.8,1.9,1.9v4.7c0,1-0.8,1.9-1.9,1.9h-19.6c-1,0-1.9-0.8-1.9-1.9v-4.7
		C151.5,111.5,152.4,110.7,153.4,110.7z"/>
	<path class="st8" d="M82.8,110.7h14.9c1,0,1.9,0.8,1.9,1.9v4.7c0,1-0.8,1.9-1.9,1.9H82.8c-1,0-1.9-0.8-1.9-1.9v-4.7
		C80.9,111.5,81.7,110.7,82.8,110.7z"/>
	<path class="st1" d="M97.2,106.3h59.5c0.3,0,0.6-0.3,0.6-0.6l0,0c0-0.3-0.3-0.6-0.6-0.6H97.2c-0.3,0-0.6,0.3-0.6,0.6l0,0
		C96.6,106,96.9,106.3,97.2,106.3L97.2,106.3z M98.8,103.8H155c0.3,0,0.6-0.3,0.6-0.6l0,0c0-0.3-0.3-0.6-0.6-0.6H98.8
		c-0.3,0-0.6,0.3-0.6,0.6l0,0C98.2,103.5,98.5,103.8,98.8,103.8z"/>
	<path class="st9" d="M91.2,84.9h-7.9V88h7.9c2.3,0,5.3-1.9,4.5-3.8l-0.5-1.1C94.4,84.1,92.7,84.9,91.2,84.9z"/>
</g>
<g>
	<path class="st1" d="M92.9,135.7c-5.6-4.1-11.3-8.3-16.6-11.7c-3.7-2.4-6.8-4.3-11.1-5.4c-6.7-1.8-15.2-1.4-25.9,2.4
		c-22.4,7.8-37.7,24.2-11.9,24.5c12.9,0.2,19.4,0.2,22.8,0.3c9.6,0.1,8.2,34.2,0.7,34.2c-3.1,0-9.7,0.1-23.5,0.3
		C1.6,180.7,17,197,39.3,204.8c11.2,4,19.9,4.2,26.7,2.2c4.3-1.3,8-3.7,11.7-6.2c4.9-3.2,10.1-7,15.2-10.7h319.9
		c5.1,3.7,10.3,7.5,15.2,10.7c3.7,2.4,7.4,4.9,11.7,6.2c6.8,2,15.6,1.8,26.7-2.2c22.4-7.8,37.7-24.2,11.9-24.5
		c-13.9-0.2-20.4-0.3-23.5-0.3c-7.5,0-8.9-34.2,0.7-34.2c3.4,0,9.9-0.1,22.8-0.3c25.8-0.4,10.5-16.7-11.9-24.5
		c-10.7-3.8-19.2-4.2-25.9-2.4c-4.3,1.1-7.4,3.1-11.1,5.4c-5.3,3.4-11,7.5-16.6,11.7H92.9z"/>
	<path class="st10" d="M480.6,133.5c0.4,0.3,0.5,0.9,0.2,1.4c-0.3,0.4-0.9,0.5-1.4,0.2c-2.2-1.5-4.5-2.9-7-4.1
		c-2.7-1.3-5.5-2.5-8.2-3.4c-3.4-1.2-7.1-2.2-10.8-2.7c-3.7-0.5-7.5-0.5-10.9,0.4c-3.3,0.9-6,2.6-8.9,4.5l-0.2,0.1
		c-2.8,1.8-5.5,3.6-8.2,5.5c-2.7,1.9-5.4,3.9-8,5.8c-0.6,0.5-1.3,0.8-2,1c-0.7,0.2-1.4,0.3-2.2,0.3H92.9c-0.8,0-1.5-0.1-2.2-0.3
		c-0.7-0.2-1.3-0.6-2-1c-2.6-2-5.3-3.9-8-5.8c-2.7-1.9-5.4-3.8-8.2-5.5l-0.2-0.1c-2.9-1.9-5.6-3.6-8.9-4.5
		c-3.5-0.9-7.2-0.9-10.9-0.4c-3.7,0.5-7.5,1.5-10.9,2.7c-2.7,1-5.5,2.1-8.2,3.4c-2.4,1.2-4.8,2.6-7,4.1c-0.4,0.3-1,0.2-1.4-0.2
		c-0.3-0.4-0.2-1,0.2-1.4c2.2-1.6,4.7-3,7.2-4.2c2.8-1.4,5.6-2.5,8.4-3.5c3.5-1.2,7.3-2.3,11.2-2.8c3.9-0.5,7.9-0.5,11.7,0.5
		c3.6,1,6.4,2.7,9.5,4.7l0.2,0.1c2.8,1.8,5.6,3.7,8.3,5.6c2.7,1.9,5.4,3.9,8,5.9c0.5,0.3,0.9,0.6,1.4,0.7c0.5,0.2,1,0.2,1.6,0.2H413
		c0.6,0,1.1-0.1,1.6-0.2c0.5-0.2,1-0.4,1.4-0.7c2.7-2,5.3-3.9,8-5.9c2.7-1.9,5.4-3.8,8.3-5.6l0.2-0.1c3.1-1.9,5.9-3.7,9.5-4.7
		c3.7-1,7.7-1,11.7-0.5c3.9,0.5,7.7,1.6,11.2,2.8c2.8,1,5.7,2.2,8.4,3.5C475.9,130.6,478.3,132,480.6,133.5z"/>
</g>
<polygon class="st11" points="253,256.8 262.5,272.4 280.3,276.6 268.5,290.5 269.9,308.8 253,301.8 236.1,308.8 237.5,290.5 
	225.6,276.6 243.4,272.4 "/>
<g>
	<text transform="matrix(1.0011 0 0 1 93.8877 181.8901)" class="st12 st13 st14"> </text>
	<text transform="matrix(1.0011 0 0 1 88.1303 181.8901)" class="st12 st13 st14">VAG CENTER</text>
	<text transform="matrix(1.0011 0 0 1 200.4267 241.5503)" class="st12 st13 st15">S</text>
	<text transform="matrix(1.0011 0 0 1 222.2485 241.5503)" class="st12 st13 st15">HOP</text>
</g>
</svg>
